#!OML:ASF E:\Steps\Project 1\Capture day 1\Session 2\Subject.ASF
:FULLY-SPECIFIED
:DEGREES
284
root 7.58677 16.0803 30.369 -153.39 2.77957 178.382
lowerback -25.8338 -0.634005 -6.03502
upperback -0.157044 1.54901 -1.27562
thorax 14.2688 0.481328 2.61757
lowerneck -5.94758 -1.87407 -1.25338
upperneck 19.0299 -4.15493 3.54643
head 6.87674 -2.1976 0.982829
rclavicle -6.4605e-015 4.77083e-015
rhumerus -34.527 -11.9989 -84.221
rradius 40.0989
rwrist -3.69342
rhand -7.55083 -53.3982
rfingers 7.12502
rthumb 18.341 -82.5535
lclavicle -6.4605e-015 4.77083e-015
lhumerus -32.1928 11.4784 77.1905
lradius 21.5722
lwrist -5.08917
lhand -20.4742 -13.2854
lfingers 7.12502
lthumb 5.88198 16.613
rfemur -20.6101 7.56452 23.0799
rtibia 9.67508
rfoot -25.2937 -4.50512
rtoes -21.4392
lfemur -53.0801 -7.78776 -14.0438
ltibia 26.5005
lfoot -7.24112 4.80108
ltoes -31.857
285
root 7.58191 16.0741 30.3048 -153.628 2.71087 178.34
lowerback -25.6452 -0.656887 -6.09811
upperback -0.0232482 1.50896 -1.26572
thorax 14.3243 0.446297 2.6456
lowerneck -5.80737 -1.76463 -1.45738
upperneck 18.7027 -3.96901 3.75164
head 6.74903 -2.10006 1.10187
rclavicle -1.41137e-014 1.35174e-014
rhumerus -34.2724 -11.7192 -84.3642
rradius 40.1989
rwrist -3.56195
rhand -7.7043 -53.237
rfingers 7.12502
rthumb 18.1933 -82.4062
lclavicle -1.41137e-014 1.35174e-014
lhumerus -32.2707 11.6623 77.1298
lradius 21.6153
lwrist -5.06353
lhand -20.1171 -13.7083
lfingers 7.12502
lthumb 6.22674 16.1802
rfemur -20.0478 7.4791 23.0723
rtibia 9.61498
rfoot -25.4915 -4.51258
rtoes -21.2647
lfemur -52.7148 -8.0374 -13.9005
ltibia 25.4399
lfoot -7.09778 4.93498
ltoes -31.3814
286
root 7.57829 16.0614 30.2381 -153.657 2.71144 178.287
lowerback -25.689 -0.641348 -6.18635
upperback 0.0476201 1.56388 -1.30126
thorax 14.4282 0.459383 2.67585
lowerneck -5.5922 -1.7889 -1.39986
upperneck 18.4846 -3.99012 3.75366
head 6.64086 -2.10741 1.0956
rclavicle 9.0447e-015 -2.78299e-014
rhumerus -34.0325 -11.7153 -84.4626
rradius 40.2182
rwrist -3.31705
rhand -7.76344 -52.8796
rfingers 7.12502
rthumb 18.1364 -82.0541
lclavicle 9.0447e-015 -2.78299e-014
lhumerus -32.2878 11.6911 77.0815
lradius 21.549
lwrist -4.98235
lhand -19.9731 -13.9333
lfingers 7.12502
lthumb 6.36579 15.9511
rfemur -19.662 7.3485 23.0532
rtibia 9.47812
rfoot -25.7161 -4.46947
rtoes -21.5455
lfemur -52.619 -8.15593 -13.8331
ltibia 24.6092
lfoot -7.12971 5.10792
ltoes -31.3565
287
root 7.57638 16.0514 30.1784 -153.654 2.75715 178.297
lowerback -25.6112 -0.574193 -6.26556
upperback 0.0664607 1.67907 -1.36403
thorax 14.3973 0.508794 2.68966
lowerneck -5.46438 -2.00786 -1.17666
upperneck 18.2782 -4.26627 3.59408
head 6.55302 -2.23576 0.990196
rclavicle 1.17283e-014 1.74931e-014
rhumerus -33.8354 -11.6409 -84.6404
rradius 40.2618
rwrist -3.38191
rhand -7.70299 -52.6649
rfingers 7.12502
rthumb 18.1946 -81.8339
lclavicle 1.17283e-014 1.74931e-014
lhumerus -32.3274 11.3316 77.1146
lradius 21.6008
lwrist -4.61789
lhand -20.0534 -13.3835
lfingers 7.12502
lthumb 6.28825 16.5031
rfemur -19.4548 7.34418 23.0718
rtibia 9.56578
rfoot -26.0687 -4.5457
rtoes -22.0776
lfemur -52.6548 -8.13973 -13.7411
ltibia 24.0655
lfoot -6.61018 5.30135
ltoes -32.029
